<?xml version="1.0" encoding="UTF-8"?>
<svg version="1.1" xmlns="http://www.w3.org/2000/svg" width="32" height="32">
<path d="M0 0 C8 0 8 0 10.12890625 1.171875 C10.60199219 1.69265625 11.07507812 2.2134375 11.5625 2.75 C12.05878906 3.26046875 12.55507812 3.7709375 13.06640625 4.296875 C14 6 14 6 13.77734375 8.078125 C13 10 13 10 11 12 C10.01 12 9.02 12 8 12 C7.67 18.6 7.34 25.2 7 32 C4.69 32 2.38 32 0 32 C0 21.44 0 10.88 0 0 Z " fill="#FFA995" transform="translate(0,0)"/>
<path d="M0 0 C0 4.95 0 9.9 0 15 C-2.31 15 -4.62 15 -7 15 C-7.33 14.01 -7.66 13.02 -8 12 C-10.31 14.31 -12.62 16.62 -15 19 C-19.5 16.75 -19.5 16.75 -21 13 C-19.02371678 10.80680765 -17.02366136 8.64874418 -15 6.5 C-14.44699219 5.87996094 -13.89398438 5.25992187 -13.32421875 4.62109375 C-8.91660908 0.01083536 -6.34160345 -0.72316531 0 0 Z " fill="#76D0F8" transform="translate(32,0)"/>
<path d="M0 0 C2.31 0 4.62 0 7 0 C7 4.95 7 9.9 7 15 C4.69 15 2.38 15 0 15 C0 10.05 0 5.1 0 0 Z " fill="#A5FDBD" transform="translate(25,0)"/>
<path d="M0 0 C2.31 0 4.62 0 7 0 C7 2.31 7 4.62 7 7 C4.69 7 2.38 7 0 7 C0 4.69 0 2.38 0 0 Z " fill="#ABA8FF" transform="translate(25,25)"/>
<path d="M0 0 C2.31 0 4.62 0 7 0 C7 2.31 7 4.62 7 7 C4.69 7 2.38 7 0 7 C0 4.69 0 2.38 0 0 Z " fill="#FFA8D5" transform="translate(25,17)"/>
</svg>
